<?xml version="1.0" encoding="UTF-8" standalone="no"?>
<svg xmlns:ffdec="https://www.free-decompiler.com/flash" xmlns:xlink="http://www.w3.org/1999/xlink" ffdec:objectType="shape" height="447.25px" width="385.65px" xmlns="http://www.w3.org/2000/svg">
  <g transform="matrix(1.0, 0.0, 0.0, 1.0, 131.4, 210.0)">
    <path d="M76.9 -178.25 L77.0 -177.7 Q77.4 -174.85 76.9 -172.45 L77.15 -169.35 Q75.8 -172.7 74.55 -173.2 L72.35 -173.85 Q72.55 -173.4 73.5 -172.45 69.5 -173.05 67.05 -170.55 66.7 -170.15 65.85 -167.25 66.6 -167.85 67.7 -168.2 L67.85 -168.2 Q66.65 -167.45 66.3 -164.05 66.1 -160.5 65.3 -157.35 64.9 -155.9 61.85 -152.2 L61.95 -152.3 64.65 -152.45 64.15 -151.95 60.85 -148.7 Q58.15 -145.75 53.4 -144.9 49.5 -144.25 45.5 -145.8 L44.75 -144.95 Q43.35 -143.5 41.6 -142.6 39.7 -141.7 37.3 -141.3 L37.5 -140.45 Q37.5 -139.7 36.95 -139.3 L36.2 -139.0 34.1 -138.85 27.95 -140.05 24.3 -140.9 23.95 -141.0 23.3 -141.05 22.7 -141.15 22.55 -141.25 Q22.2 -141.6 22.2 -142.05 L22.45 -143.0 Q22.85 -143.65 23.45 -143.65 L23.95 -143.5 23.65 -143.75 26.0 -143.4 23.9 -145.95 Q23.25 -146.95 23.25 -149.05 23.25 -152.75 25.3 -155.0 26.8 -156.65 31.65 -159.45 L31.4 -160.25 32.7 -159.7 33.7 -159.05 Q33.55 -159.9 33.55 -160.7 33.9 -164.25 34.85 -167.4 35.5 -169.6 36.45 -171.6 L39.05 -174.85 Q40.35 -176.45 45.3 -180.35 47.9 -182.85 53.65 -184.45 59.35 -186.1 63.8 -185.65 68.2 -185.25 72.8 -182.2 75.35 -180.55 76.9 -178.25 M12.85 -160.8 Q13.15 -163.35 15.35 -163.35 17.15 -163.35 18.6 -161.55 19.85 -159.9 19.85 -158.4 19.85 -155.5 16.0 -154.0 L14.75 -153.55 14.0 -153.35 10.5 -153.45 10.95 -151.9 Q10.95 -151.35 10.45 -150.8 9.9 -150.2 9.25 -150.15 L9.3 -150.6 9.0 -151.7 8.7 -152.8 Q8.7 -154.2 11.2 -155.3 13.65 -156.4 13.65 -158.95 13.65 -159.8 12.85 -160.8" fill="#0f1433" fill-rule="evenodd" stroke="none"/>
    <path d="M76.9 -178.25 Q75.35 -180.55 72.8 -182.2 68.2 -185.25 63.8 -185.65 59.35 -186.1 53.65 -184.45 47.9 -182.85 45.3 -180.35 40.35 -176.45 39.05 -174.85 L36.45 -171.6 Q38.75 -176.5 42.8 -180.25 50.2 -186.3 54.85 -187.05 L62.45 -187.8 Q65.4 -187.8 70.8 -185.7 75.9 -183.75 76.9 -178.25 M31.4 -160.25 L31.65 -159.45 Q26.8 -156.65 25.3 -155.0 23.25 -152.75 23.25 -149.05 23.25 -146.95 23.9 -145.95 L26.0 -143.4 23.65 -143.75 23.95 -143.5 23.45 -143.65 Q22.85 -143.65 22.45 -143.0 L22.2 -142.05 Q22.2 -141.6 22.55 -141.25 L22.7 -141.15 21.75 -141.4 21.5 -141.5 Q19.85 -142.15 20.25 -143.35 20.65 -144.55 22.0 -144.25 L23.65 -143.75 21.4 -145.85 20.75 -147.3 Q20.4 -148.25 20.4 -150.15 20.4 -155.0 23.75 -157.85 26.65 -160.35 30.5 -160.35 L31.4 -160.25 M15.45 -187.9 L15.7 -189.75 Q15.9 -191.15 16.65 -191.0 17.35 -190.85 17.75 -189.9 L18.2 -188.85 17.1 -188.85 Q16.35 -188.7 15.45 -187.9 M-2.4 -174.15 L-2.65 -174.15 -3.0 -175.1 -3.3 -176.25 Q-3.3 -177.0 -2.5 -177.25 -2.0 -177.45 -2.1 -177.25 -0.55 -177.45 1.2 -178.85 2.9 -180.25 3.7 -181.65 4.5 -183.05 9.85 -184.75 9.75 -185.05 9.8 -186.05 9.8 -188.0 10.7 -189.75 11.55 -191.5 12.55 -191.1 13.55 -190.7 14.15 -188.5 12.2 -188.15 10.9 -185.25 9.35 -181.95 7.95 -181.2 4.2 -179.25 2.5 -177.85 0.3 -176.0 -0.1 -173.95 L-0.75 -174.15 -2.4 -174.15 M10.65 -164.65 L10.4 -161.95 Q10.4 -159.95 11.2 -158.9 L12.35 -157.7 Q12.8 -158.3 12.75 -159.3 L12.85 -160.8 Q13.65 -159.8 13.65 -158.95 13.65 -156.4 11.2 -155.3 8.7 -154.2 8.7 -152.8 L9.0 -151.7 9.3 -150.6 9.25 -150.15 9.1 -150.15 Q8.6 -150.15 8.1 -150.6 6.65 -152.2 7.5 -154.65 L9.15 -155.9 10.4 -156.55 9.35 -159.55 Q8.7 -161.65 8.85 -162.7 L8.85 -164.8 10.1 -164.65 10.65 -164.65 M14.8 -152.95 L16.35 -152.6 Q16.55 -149.9 14.95 -146.7 L13.9 -144.8 13.7 -145.0 Q13.4 -145.4 13.4 -146.25 14.75 -149.9 14.85 -151.8 L14.8 -152.95" fill="#60689a" fill-rule="evenodd" stroke="none"/>
    <path d="M34.85 -167.4 Q33.9 -164.25 33.55 -160.7 33.55 -159.9 33.7 -159.05 L32.7 -159.7 31.4 -160.25 30.5 -160.35 Q26.65 -160.35 23.75 -157.85 20.4 -155.0 20.4 -150.15 20.4 -148.25 20.75 -147.3 L21.4 -145.85 Q20.3 -147.25 19.75 -148.95 L18.9 -150.5 Q17.85 -152.4 16.6 -152.55 L16.35 -152.6 14.8 -152.95 14.75 -153.55 16.0 -154.0 Q19.85 -155.5 19.85 -158.4 19.85 -159.9 18.6 -161.55 17.15 -163.35 15.35 -163.35 13.15 -163.35 12.85 -160.8 L12.75 -159.3 Q12.8 -158.3 12.35 -157.7 L11.2 -158.9 Q10.4 -159.95 10.4 -161.95 L10.65 -164.65 12.2 -164.75 Q11.1 -167.15 7.85 -169.65 4.35 -172.4 -0.1 -173.95 0.3 -176.0 2.5 -177.85 4.2 -179.25 7.95 -181.2 9.35 -181.95 10.9 -185.25 12.2 -188.15 14.15 -188.5 L14.85 -187.4 15.05 -186.9 15.35 -186.9 15.45 -187.9 Q16.35 -188.7 17.1 -188.85 L18.2 -188.85 18.75 -187.2 19.6 -185.35 20.25 -183.6 21.6 -179.0 Q22.2 -177.1 22.2 -174.9 22.2 -172.3 21.25 -170.3 L24.2 -167.7 Q25.95 -166.35 26.45 -166.4 L29.4 -166.9 34.45 -167.4 34.85 -167.4" fill="#060a23" fill-rule="evenodd" stroke="none"/>
    <path d="M-0.1 -173.95 Q4.35 -172.4 7.85 -169.65 11.1 -167.15 12.2 -164.75 L10.65 -164.65 10.1 -164.65 8.85 -164.8 7.3 -165.05 5.4 -165.5 3.55 -166.15 0.85 -167.9 0.25 -170.4 -0.25 -172.9 -0.1 -173.95" fill="#1e2556" fill-rule="evenodd" stroke="none"/>
    <path d="M0.85 -167.9 Q1.0 -167.55 0.65 -167.85 -2.15 -170.25 -2.35 -173.35 L-2.4 -173.9 -2.4 -174.15 -0.75 -174.15 -0.1 -173.95 -0.25 -172.9 0.25 -170.4 0.85 -167.9" fill="#7b81a6" fill-rule="evenodd" stroke="none"/>
    <path d="M36.95 -139.3 Q37.5 -139.7 37.5 -140.45 L37.3 -141.3 Q39.7 -141.7 41.6 -142.6 L41.95 -141.1 42.05 -140.3 Q42.05 -138.75 39.5 -138.75 L36.95 -139.3 M16.35 -152.6 L16.6 -152.55 Q17.85 -152.4 18.9 -150.5 L19.75 -148.95 16.35 -144.8 14.45 -144.65 Q14.1 -144.65 13.9 -144.8 L14.95 -146.7 Q16.55 -149.9 16.35 -152.6" fill="#03040e" fill-rule="evenodd" stroke="none"/>
    <path d="M6.6 -178.45 Q5.8 -177.6 5.8 -176.45 5.8 -175.3 6.6 -174.5 L6.9 -174.2 Q6.25 -174.4 5.75 -174.95 4.95 -175.75 4.95 -176.9 4.95 -178.05 5.75 -178.9 6.55 -179.7 7.7 -179.7 8.7 -179.7 9.45 -179.1 L8.6 -179.25 Q7.4 -179.25 6.6 -178.45" fill="#878db6" fill-rule="evenodd" stroke="none"/>
    <path d="M7.7 -176.8 Q7.3 -176.45 6.75 -176.45 6.35 -176.45 6.0 -176.7 L5.85 -176.8 Q5.45 -177.2 5.45 -177.75 5.45 -178.3 5.85 -178.65 6.25 -179.05 6.75 -179.05 L7.15 -179.0 7.7 -178.65 Q8.05 -178.3 8.05 -177.75 8.05 -177.2 7.7 -176.8" fill="#7681c4" fill-rule="evenodd" stroke="none"/>
    <path d="M133.15 -68.15 Q138.25 -68.15 141.8 -61.65 144.85 -55.95 144.5 -51.15 144.15 -45.55 147.3 -40.6 149.1 -37.85 152.6 -33.4 L153.45 -33.4 Q154.3 -36.8 154.95 -38.15 156.45 -41.4 158.7 -41.4 161.95 -41.4 163.15 -37.35 164.0 -34.7 164.0 -29.75 164.0 -24.15 163.05 -22.55 160.85 -19.8 158.3 -14.75 166.75 -14.75 174.35 0.15 177.3 6.05 179.25 12.5 181.0 18.7 181.0 22.6 181.0 25.15 178.95 28.35 175.35 34.0 174.5 35.55 193.7 36.15 207.85 49.35 223.2 63.7 223.2 85.05 223.2 98.0 214.05 110.05 L206.5 118.9 Q202.05 123.8 200.5 126.45 L199.7 126.45 Q201.6 123.9 202.0 118.55 L202.1 107.35 Q202.1 91.45 192.25 78.3 187.35 71.7 172.1 58.3 165.1 52.2 158.9 40.85 152.0 26.95 147.75 19.35 135.6 -2.2 129.75 -18.7 122.4 -39.15 121.8 -58.4 L121.8 -61.7 Q121.8 -65.4 122.25 -65.95 123.25 -66.95 127.7 -66.65 L128.75 -67.25 Q130.8 -68.15 133.15 -68.15" fill="#000000" fill-opacity="0.3019608" fill-rule="evenodd" stroke="none"/>
    <path d="M142.3 -79.6 L142.4 -77.4 Q142.4 -75.25 141.2 -71.85 L140.3 -69.8 Q139.5 -71.05 136.95 -71.75 138.5 -73.95 138.3 -76.35 L138.45 -76.6 138.65 -76.75 138.45 -76.15 141.0 -79.15 142.3 -79.6 M134.15 -84.15 L134.8 -84.05 135.35 -82.9 135.5 -81.9 Q135.5 -79.95 134.55 -78.2 133.9 -76.9 132.95 -76.1 130.8 -77.05 129.65 -76.55 129.15 -78.9 130.2 -80.2 132.3 -82.65 134.15 -84.15 M124.6 -77.8 Q124.8 -66.1 114.6 -54.2 L114.5 -54.25 110.5 -55.6 107.95 -58.25 107.4 -58.7 106.2 -59.55 Q98.95 -63.3 96.2 -64.3 L96.25 -64.45 96.4 -64.55 96.25 -64.5 96.35 -64.8 96.35 -64.85 96.65 -66.85 96.5 -66.9 Q97.8 -67.2 100.65 -68.8 103.5 -70.45 106.1 -75.05 109.35 -78.1 116.8 -77.95 L124.6 -77.8 M117.0 -33.5 Q121.8 -33.65 123.0 -27.2 L122.95 -23.4 Q122.95 -15.65 125.2 -8.1 127.4 -0.5 127.4 12.8 127.4 15.35 128.2 18.0 129.55 20.15 131.65 22.2 136.75 27.15 139.85 27.15 L139.85 27.65 137.55 27.65 136.35 27.3 135.1 26.9 134.85 26.9 Q135.7 28.8 140.6 31.35 145.65 33.95 147.25 33.05 147.2 34.4 145.2 35.4 L142.45 36.45 143.6 37.25 145.8 38.55 Q147.9 39.6 149.3 39.55 L155.35 40.0 156.6 40.15 162.05 40.65 159.8 41.35 157.95 41.4 145.5 40.45 Q144.7 45.7 144.4 49.0 144.4 56.9 148.8 63.35 L149.5 64.35 Q152.15 68.0 160.6 75.3 168.45 82.15 171.7 87.15 176.45 94.55 176.75 104.05 178.05 109.3 177.3 114.5 176.55 119.65 174.6 123.15 172.9 126.1 171.85 126.55 L171.05 127.3 172.8 122.1 Q170.4 123.9 166.4 125.85 163.05 127.5 160.65 128.25 L160.4 128.25 Q162.25 127.55 164.25 125.75 160.45 127.9 155.5 129.5 155.0 128.55 154.95 127.7 161.35 127.45 165.15 124.25 L166.6 122.85 Q169.5 119.45 169.5 114.0 169.5 107.95 164.3 101.55 161.65 98.3 152.9 90.3 144.9 82.95 141.5 78.1 L139.65 75.2 Q136.3 69.15 136.3 62.95 136.3 57.65 138.15 53.6 141.1 47.2 143.15 40.0 136.25 38.25 132.35 34.45 124.6 26.85 123.2 21.95 121.75 17.0 121.75 11.45 121.75 5.8 122.55 2.35 123.35 -1.15 123.35 -3.2 L120.65 -8.85 Q117.9 -14.8 117.75 -16.3 L117.7 -16.75 Q117.45 -19.65 117.3 -24.9 L117.25 -26.25 116.65 -34.45 117.0 -33.5 M174.15 32.05 Q178.8 25.1 178.8 12.4 178.8 6.7 177.45 2.2 L177.55 0.9 Q179.9 3.0 181.15 5.95 182.85 9.95 182.85 17.0 182.85 24.75 181.5 29.05 180.35 32.7 177.9 36.7 176.3 36.5 175.35 34.3 L174.15 32.05 M167.5 -9.75 L165.85 -9.65 Q165.6 -8.5 164.65 -7.55 163.6 -6.55 161.4 -5.5 L162.15 -7.25 159.9 -7.25 157.35 -5.6 154.75 -3.55 154.75 -3.8 155.6 -6.0 156.25 -7.65 Q153.9 -6.75 152.05 -5.5 146.55 -1.75 148.1 -0.95 149.7 -0.15 148.5 -0.55 146.85 -1.1 146.85 -2.15 146.85 -3.0 147.25 -3.9 L147.1 -6.85 149.3 -8.35 Q151.05 -9.4 153.0 -10.0 L153.5 -10.15 Q156.6 -11.1 160.15 -11.1 163.3 -11.1 165.95 -10.3 L167.5 -9.75 M116.85 -65.8 Q116.9 -69.15 115.75 -70.5 114.3 -72.15 110.65 -72.15 108.15 -72.15 104.75 -70.1 101.15 -67.95 101.15 -65.9 L101.25 -65.0 Q101.05 -62.6 103.9 -61.7 110.85 -58.8 113.8 -60.6 116.75 -62.45 116.85 -65.8 M106.9 -59.2 L106.75 -59.25 107.0 -59.1 106.9 -59.2 M178.2 -2.0 Q179.7 -5.4 184.05 -5.4 185.7 -5.4 187.3 -3.8 L188.55 -2.15 187.5 -0.8 Q185.3 1.9 182.85 1.9 180.55 1.9 179.55 0.85 178.8 0.0 178.2 -2.0" fill="#858289" fill-rule="evenodd" stroke="none"/>
    <path d="M138.45 -76.6 L138.3 -76.35 Q138.5 -73.95 136.95 -71.75 139.5 -71.05 140.3 -69.8 L141.2 -71.85 Q142.4 -75.25 142.4 -77.4 L142.3 -79.6 143.2 -79.85 Q143.8 -79.35 143.95 -77.0 L144.0 -73.95 Q144.0 -72.1 143.25 -67.25 L142.8 -64.25 Q144.4 -58.9 144.3 -53.65 144.15 -48.45 141.15 -40.8 L139.05 -38.65 138.8 -37.85 138.75 -36.3 138.85 -33.65 Q139.2 -32.55 140.35 -31.6 142.5 -32.65 145.15 -33.6 L145.2 -33.6 Q150.15 -35.5 151.3 -36.55 152.5 -37.55 153.65 -43.3 154.65 -48.3 156.6 -48.3 158.1 -48.3 159.45 -44.25 160.65 -40.65 160.65 -38.15 160.65 -30.95 154.0 -23.6 L152.6 -22.1 148.7 -18.45 145.85 -15.7 146.8 -9.0 147.1 -6.85 147.25 -3.9 Q146.85 -3.0 146.85 -2.15 146.85 -1.1 148.5 -0.55 149.7 -0.15 148.1 -0.95 146.55 -1.75 152.05 -5.5 153.9 -6.75 156.25 -7.65 L155.6 -6.0 154.75 -3.8 154.75 -3.55 157.35 -5.6 159.9 -7.25 162.15 -7.25 161.4 -5.5 Q163.6 -6.55 164.65 -7.55 165.6 -8.5 165.85 -9.65 L167.5 -9.75 Q171.65 -8.05 174.35 -4.2 175.8 -2.15 176.8 0.3 L177.45 2.2 Q178.8 6.7 178.8 12.4 178.8 25.1 174.15 32.05 L172.35 34.25 Q168.55 38.3 162.05 40.65 L156.6 40.15 155.35 40.0 149.3 39.55 Q147.9 39.6 145.8 38.55 L143.6 37.25 142.45 36.45 145.2 35.4 Q147.2 34.4 147.25 33.05 145.65 33.95 140.6 31.35 135.7 28.8 134.85 26.9 L135.1 26.9 136.35 27.3 137.55 27.65 139.85 27.65 139.85 27.15 Q136.75 27.15 131.65 22.2 129.55 20.15 128.2 18.0 127.4 15.35 127.4 12.8 127.4 -0.5 125.2 -8.1 122.95 -15.65 122.95 -23.4 L123.0 -27.2 Q121.8 -33.65 117.0 -33.5 L117.0 -33.95 Q117.9 -34.15 117.25 -34.4 L116.95 -34.45 116.55 -34.6 115.05 -34.95 Q115.05 -35.6 116.0 -39.35 116.6 -41.65 115.55 -45.3 L117.35 -45.1 Q118.85 -44.65 119.9 -43.7 L119.9 -44.5 Q119.9 -47.0 119.05 -48.85 117.85 -51.4 115.3 -52.15 L115.3 -52.35 Q115.85 -52.3 117.2 -52.8 L119.2 -53.6 Q117.85 -53.2 114.6 -54.2 124.8 -66.1 124.6 -77.8 126.55 -77.75 129.65 -76.55 130.8 -77.05 132.95 -76.1 133.9 -76.9 134.55 -78.2 135.5 -79.95 135.5 -81.9 L135.35 -82.9 134.8 -84.05 134.15 -84.15 135.0 -84.8 135.05 -84.85 136.7 -84.75 Q138.2 -84.2 138.45 -76.6 M188.55 -2.15 L188.9 -0.75 187.4 2.75 Q185.8 6.6 185.7 8.75 185.5 12.55 184.45 18.85 183.6 24.7 182.5 28.9 180.5 36.7 178.15 36.7 L177.9 36.7 Q180.35 32.7 181.5 29.05 182.85 24.75 182.85 17.0 182.85 9.95 181.15 5.95 179.9 3.0 177.55 0.9 177.65 -0.8 178.2 -2.0 178.8 0.0 179.55 0.85 180.55 1.9 182.85 1.9 185.3 1.9 187.5 -0.8 L188.55 -2.15 M158.55 132.9 L157.6 132.05 155.5 129.5 Q160.45 127.9 164.25 125.75 162.25 127.55 160.4 128.25 L160.65 128.25 Q163.05 127.5 166.4 125.85 170.4 123.9 172.8 122.1 L171.05 127.3 171.85 126.55 Q172.9 126.1 174.6 123.15 176.55 119.65 177.3 114.5 178.05 109.3 176.75 104.05 176.45 94.55 171.7 87.15 168.45 82.15 160.6 75.3 152.15 68.0 149.5 64.35 L148.8 63.35 Q144.4 56.9 144.4 49.0 144.7 45.7 145.5 40.45 L157.95 41.4 160.35 42.4 Q164.6 49.2 173.55 54.85 L180.4 59.05 Q181.85 60.8 183.15 63.35 L184.7 67.15 Q186.75 72.9 186.25 75.0 L186.25 75.25 Q188.25 69.5 188.25 66.8 190.55 70.15 192.1 75.1 193.85 80.6 192.9 83.4 L192.9 83.65 Q194.8 80.3 195.35 78.6 L195.85 75.25 Q202.25 86.35 202.25 100.0 202.25 114.45 190.9 124.9 180.4 134.55 168.05 134.55 163.2 134.55 158.55 132.9" fill="#4d425d" fill-rule="evenodd" stroke="none"/>
    <path d="M91.85 -60.5 Q91.35 -62.35 91.55 -64.05 91.7 -65.8 92.85 -66.65 93.95 -67.55 96.5 -66.9 L96.65 -66.85 96.35 -64.85 96.35 -64.8 96.25 -64.5 Q92.65 -63.25 91.9 -60.9 L91.85 -60.5" fill="#772b2b" fill-rule="evenodd" stroke="none"/>
    <path d="M96.25 -64.5 L96.4 -64.55 96.25 -64.45 96.2 -64.3 Q98.95 -63.3 106.2 -59.55 L107.4 -58.7 107.9 -58.25 107.95 -58.25 110.5 -55.6 114.5 -54.25 114.6 -54.2 113.65 -53.15 112.8 -52.2 Q108.35 -47.5 103.55 -44.7 L100.4 -43.0 Q91.8 -50.3 91.8 -59.0 L91.85 -60.5 91.9 -60.9 Q92.65 -63.25 96.25 -64.5 M106.9 -59.2 L107.0 -59.1 106.75 -59.25 106.9 -59.2 M153.5 -10.35 L153.5 -10.15 153.0 -10.0 153.5 -10.35" fill="#a3b4d3" fill-rule="evenodd" stroke="none"/>
    <path d="M107.4 -58.7 L107.95 -58.25 107.9 -58.25 107.4 -58.7 M116.85 -65.8 Q116.75 -62.45 113.8 -60.6 110.85 -58.8 103.9 -61.7 101.05 -62.6 101.25 -65.0 L101.15 -65.9 Q101.15 -67.95 104.75 -70.1 108.15 -72.15 110.65 -72.15 114.3 -72.15 115.75 -70.5 116.9 -69.15 116.85 -65.8 M113.25 -64.5 Q113.05 -65.95 111.65 -67.85 109.95 -70.1 108.2 -70.1 107.45 -70.1 106.25 -69.1 104.8 -67.85 104.15 -65.9 L104.2 -65.35 Q104.45 -63.65 104.65 -63.15 104.85 -62.6 105.8 -62.15 106.75 -61.7 108.9 -62.5 L113.25 -64.5" fill="#655579" fill-rule="evenodd" stroke="none"/>
    <path d="M113.25 -64.5 L108.9 -62.5 Q106.75 -61.7 105.8 -62.15 104.85 -62.6 104.65 -63.15 104.45 -63.65 104.2 -65.35 L104.15 -65.9 Q104.8 -67.85 106.25 -69.1 107.45 -70.1 108.2 -70.1 109.95 -70.1 111.65 -67.85 113.05 -65.95 113.25 -64.5" fill="#000000" fill-rule="evenodd" stroke="none"/>
    <path d="M114.6 -54.2 Q117.85 -53.2 119.2 -53.6 L117.2 -52.8 Q115.85 -52.3 115.3 -52.35 L115.3 -52.15 Q117.85 -51.4 119.05 -48.85 119.9 -47.0 119.9 -44.5 L119.9 -43.7 Q118.85 -44.65 117.35 -45.1 L115.55 -45.3 Q116.6 -41.65 116.0 -39.35 115.05 -35.6 115.05 -34.95 108.5 -36.8 102.4 -41.4 L100.4 -43.0 103.55 -44.7 Q108.35 -47.5 112.8 -52.2 L113.65 -53.15 114.6 -54.2 M147.1 -6.85 L146.8 -9.0 145.85 -15.7 148.7 -18.45 152.6 -22.1 153.15 -17.4 153.5 -10.35 153.0 -10.0 Q151.05 -9.4 149.3 -8.35 L147.1 -6.85 M145.2 -33.6 L145.15 -33.6 Q142.5 -32.65 140.35 -31.6 139.2 -32.55 138.85 -33.65 L138.75 -36.3 138.8 -37.85 139.05 -38.65 141.15 -40.8 Q142.15 -36.65 144.65 -34.15 L145.2 -33.6 M160.35 42.4 L163.6 43.5 179.3 48.8 Q187.05 51.5 193.35 55.45 198.1 58.45 203.2 63.35 L206.5 66.75 Q213.3 74.15 215.9 88.2 L216.5 91.9 218.9 101.95 Q219.5 106.2 219.5 110.25 L219.5 115.4 217.75 111.15 217.5 111.15 Q216.9 115.0 211.55 127.1 211.3 127.1 211.0 127.35 L211.3 124.6 209.3 126.7 209.15 126.85 208.15 124.8 206.4 126.9 Q200.5 133.65 193.3 137.25 185.6 141.05 179.2 141.05 L176.45 140.9 174.55 140.9 168.55 140.3 164.15 139.25 166.85 139.25 Q164.2 138.65 161.8 137.4 L159.75 136.2 Q157.5 134.75 155.0 132.3 L158.55 132.9 Q163.2 134.55 168.05 134.55 180.4 134.55 190.9 124.9 202.25 114.45 202.25 100.0 202.25 86.35 195.85 75.25 L195.35 78.6 Q194.8 80.3 192.9 83.65 L192.9 83.4 Q193.85 80.6 192.1 75.1 190.55 70.15 188.25 66.8 188.25 69.5 186.25 75.25 L186.25 75.0 Q186.75 72.9 184.7 67.15 L183.15 63.35 Q181.85 60.8 180.4 59.05 L173.55 54.85 Q164.6 49.2 160.35 42.4" fill="#6d7c98" fill-rule="evenodd" stroke="none"/>
    <path d="M112.1 -20.95 L111.75 -21.25 111.25 -21.2 Q109.55 -21.2 108.05 -23.6 106.75 -25.55 106.75 -26.6 L106.8 -27.3 106.95 -27.4 106.9 -27.5 Q106.75 -28.05 106.75 -29.0 106.75 -31.6 108.4 -32.85 L109.0 -33.25 Q109.55 -29.95 111.3 -24.4 L112.05 -21.3 112.1 -20.95" fill="#696370" fill-rule="evenodd" stroke="none"/>
    <path d="M109.0 -33.25 L110.85 -33.7 Q112.55 -33.7 113.65 -30.85 L114.3 -28.75 115.9 -27.05 Q116.5 -26.55 117.25 -26.25 L117.3 -24.9 Q117.45 -19.65 117.7 -16.75 L115.35 -18.5 112.1 -20.95 112.05 -21.3 111.3 -24.4 Q109.55 -29.95 109.0 -33.25" fill="#2e2738" fill-rule="evenodd" stroke="none"/>
    <path d="M109.3 -67.5 Q109.3 -66.75 108.75 -66.25 108.25 -65.75 107.55 -65.75 106.8 -65.75 106.3 -66.25 105.8 -66.75 105.8 -67.5 105.8 -68.2 106.3 -68.75 106.8 -69.25 107.55 -69.25 108.25 -69.25 108.75 -68.75 109.3 -68.2 109.3 -67.5" fill="#6d7c98" fill-rule="evenodd" stroke="none"/>
    <path d="M143.15 -51.45 Q143.15 -48.45 141.95 -45.25 L139.5 -39.2 Q138.45 -36.0 138.3 -33.7 138.05 -32.95 134.4 -32.95 134.15 -32.7 130.7 -32.95 L125.4 -33.8 Q124.4 -34.05 122.1 -35.1 L119.7 -36.15 Q127.85 -37.25 135.3 -44.35 143.05 -51.8 141.7 -57.25 142.85 -55.5 143.05 -54.45 L143.15 -51.45" fill="#31283f" fill-rule="evenodd" stroke="none"/>
    <path d="M175.7 11.6 Q175.7 17.55 172.45 25.0 167.35 36.75 157.4 36.75 155.75 36.75 154.6 34.25 153.75 32.4 153.75 31.5 153.75 29.3 157.2 22.75 160.7 16.05 164.7 10.85 169.45 4.7 172.25 4.25 175.7 3.65 175.7 11.6" fill="#31283f" fill-rule="evenodd" stroke="none"/>
    <path d="M143.65 -17.6 Q144.95 -17.05 145.65 -15.95 L145.65 -0.75 144.9 -0.4 143.65 0.25 Q141.85 -1.5 141.2 -5.45 140.8 -7.95 140.8 -12.3 140.8 -13.9 141.2 -14.85 141.8 -16.2 143.65 -17.6" fill="#31283f" fill-rule="evenodd" stroke="none"/>
    <path d="M110.35 -63.65 Q112.25 -66.8 110.9 -68.4 110.25 -69.1 108.4 -69.9 112.45 -69.95 113.0 -68.45 113.55 -66.95 113.3 -65.25 113.05 -63.6 111.3 -62.8 109.45 -62.05 107.35 -62.1 109.6 -62.5 110.35 -63.65" fill="#adadad" fill-rule="evenodd" stroke="none"/>
    <path d="M109.1 -75.15 L110.6 -75.35 112.8 -74.8 114.85 -73.55" fill="none" stroke="#4d425d" stroke-linecap="round" stroke-linejoin="round" stroke-width="1.0"/>
    <path d="M105.55 -62.4 L104.9 -63.35 105.65 -62.35 105.55 -62.4" fill="url(#gradient0)" fill-rule="evenodd" stroke="none"/>
    <path d="M71.55 -1.5 Q69.45 -3.05 66.4 -4.65 63.3 -6.25 61.65 -11.85 L60.75 -14.85 Q63.05 -13.0 64.6 -12.1 65.5 -11.6 67.45 -11.6 72.5 -11.6 77.1 -14.2 L77.8 -14.6 Q83.05 -17.15 87.5 -22.5 L88.5 -23.75 94.45 -31.65 Q95.85 -33.3 97.2 -34.2 L97.75 -32.05 Q98.25 -29.95 98.25 -28.0 98.25 -25.15 97.5 -22.5 94.55 -12.45 80.3 -5.95 76.45 -4.2 71.55 -1.5 M86.7 2.35 L86.4 2.0 Q85.9 2.0 85.4 2.5 L83.95 2.5 84.05 2.3 Q84.65 1.35 84.65 0.35 L84.35 -1.8 84.35 -1.85 84.4 -2.5 84.25 -3.6 Q87.75 -5.4 90.7 -8.1 92.8 -10.0 94.3 -12.0 L94.3 -8.3 Q93.3 -6.15 90.8 -2.75 L86.7 2.35" fill="#5da3bf" fill-rule="evenodd" stroke="none"/>
    <path d="M71.1 -1.55 Q70.2 -2.1 71.55 -1.5 76.45 -4.2 80.3 -5.95 94.55 -12.45 97.5 -22.5 98.25 -25.15 98.25 -28.0 98.25 -29.95 97.75 -32.05 L97.2 -34.2 Q98.45 -35.05 99.7 -35.2 99.6 -30.75 101.8 -23.45 L102.1 -22.5 103.25 -19.0 Q102.1 -14.45 98.5 -7.25 93.05 3.5 88.5 3.5 L87.3 3.3 86.7 2.35 90.8 -2.75 Q93.3 -6.15 94.3 -8.3 L94.3 -12.0 Q92.8 -10.0 90.7 -8.1 87.75 -5.4 84.25 -3.6 L83.9 -4.1 80.45 -2.15 Q78.55 -1.15 75.5 -1.15 L72.05 -1.4 71.1 -1.55" fill="#348fb4" fill-rule="evenodd" stroke="none"/>
    <path d="M99.7 -35.2 L100.25 -35.25 105.0 -34.55 105.15 -34.5 108.1 -34.4 Q111.4 -34.2 113.1 -33.3 L113.1 -31.55 Q109.25 -31.45 107.0 -28.75 104.75 -26.05 103.5 -20.0 L103.4 -19.55 103.25 -19.0 102.1 -22.5 101.8 -23.45 Q99.6 -30.75 99.7 -35.2" fill="#106d93" fill-rule="evenodd" stroke="none"/>
    <path d="M71.1 -1.55 Q66.25 -2.95 64.05 -5.3 61.25 -8.3 59.0 -15.5 L59.0 -17.0 59.25 -17.0 62.15 -14.25 Q64.75 -12.25 67.45 -12.25 72.95 -12.25 77.8 -14.6 L77.1 -14.2 Q72.5 -11.6 67.45 -11.6 65.5 -11.6 64.6 -12.1 63.05 -13.0 60.75 -14.85 L61.65 -11.85 Q63.3 -6.25 66.4 -4.65 69.45 -3.05 71.55 -1.5 70.2 -2.1 71.1 -1.55 M83.95 2.5 L82.65 2.5 Q82.55 1.8 83.45 0.2 L84.35 -1.85 84.35 -1.8 84.65 0.35 Q84.65 1.35 84.05 2.3 L83.95 2.5" fill="#a1cbdb" fill-rule="evenodd" stroke="none"/>
    <path d="M113.7 -65.3 L113.25 -64.35 113.2 -64.55 Q113.55 -66.0 113.15 -67.7 112.2 -70.0 108.3 -70.25 111.25 -70.9 113.0 -69.1 114.65 -67.3 113.7 -65.3" fill="#000000" fill-rule="evenodd" stroke="none"/>
    <path d="M112.85 -64.55 Q112.85 -63.6 110.85 -62.55 108.9 -61.5 107.3 -61.5 106.3 -61.5 105.35 -62.05 L104.5 -62.7 104.5 -63.05 105.15 -63.2 107.7 -62.45 Q108.75 -62.45 110.6 -63.6 112.6 -64.8 112.75 -64.8 L112.85 -64.55" fill="#000000" fill-rule="evenodd" stroke="none"/>
    <path d="M106.2 -64.7 L105.9 -64.25 105.3 -64.0 Q104.8 -64.0 104.65 -64.45 L104.6 -64.8 Q104.6 -65.75 105.4 -65.7 106.2 -65.65 106.2 -64.7" fill="#ffffff" fill-rule="evenodd" stroke="none"/>
    <path d="M251.55 235.95 Q246.55 234.3 243.8 233.05 238.45 230.65 231.5 223.25 221.45 212.45 208.85 201.0 195.95 189.25 188.5 184.25 L189.5 184.25 Q199.25 186.6 223.15 204.85 L250.5 226.25 Q249.6 221.65 245.35 217.15 L232.5 203.25 Q225.4 194.85 205.15 182.05 L191.3 173.5 Q184.8 169.55 183.5 168.25 L184.5 168.25 Q205.25 178.5 218.55 187.65 239.0 201.7 248.9 216.3 242.7 202.9 235.9 190.55 218.65 159.25 205.5 151.25 L206.5 151.25 Q208.5 151.9 215.9 159.1 223.7 166.7 231.7 176.1 251.85 199.7 254.25 211.65 L254.05 213.2 253.0 220.85 252.75 222.75 253.5 224.25 252.6 224.25 Q251.65 231.95 251.55 235.95 L252.5 236.25 253.0 236.4 Q253.5 236.65 253.5 237.25 L251.5 237.25 251.55 235.95" fill="#1b6c87" fill-rule="evenodd" stroke="none"/>
    <path d="M79.5 -85.0 Q7.8 -129.75 -25.5 -149.0 L-44.9 -160.3 Q-58.7 -168.45 -77.75 -178.45 -96.9 -188.5 -118.05 -199.9 -139.25 -211.3 -126.75 -208.5 L-126.5 -210.0 Q-100.45 -201.45 -70.65 -182.7 L-46.2 -166.55 Q-30.65 -156.05 -22.5 -151.0 0.65 -140.95 28.9 -121.8 42.6 -112.55 79.5 -85.0" fill="url(#gradient1)" fill-rule="evenodd" stroke="none"/>
    <path d="M40.25 -52.75 L56.9 -41.4 74.0 -29.0 73.25 -27.5 Q67.65 -30.7 58.6 -37.1 L42.6 -48.2 Q21.7 -62.2 2.5 -68.5 14.5 -72.45 40.25 -52.75" fill="url(#gradient2)" fill-rule="evenodd" stroke="none"/>
    <path d="M136.65 7.9 Q141.3 13.8 145.65 22.0 149.75 29.65 149.75 31.85 149.75 34.0 147.25 36.8 144.55 39.75 142.0 39.75 133.3 39.75 127.5 25.75 125.75 21.5 124.4 16.25 L123.5 12.25 Q123.5 1.1 127.6 0.9 130.95 0.8 136.65 7.9" fill="url(#gradient3)" fill-rule="evenodd" stroke="none"/>
    <path d="M167.5 89.1 Q167.5 91.35 165.75 92.5 164.25 93.5 162.0 93.5 155.2 93.5 147.2 79.0 144.55 74.2 142.35 68.8 140.5 64.3 140.5 63.6 140.5 48.4 144.7 48.6 148.15 48.8 154.0 58.85 158.45 66.5 163.3 77.8 167.5 87.75 167.5 89.1" fill="url(#gradient4)" fill-rule="evenodd" stroke="none"/>
    <path d="M114.5 -28.0 Q121.95 -30.85 125.55 -19.55 127.75 -12.7 127.75 -6.5 L127.6 -3.9 Q127.05 -1.7 125.0 -1.25 122.1 -7.1 119.4 -14.15 117.35 -19.4 114.5 -28.0" fill="url(#gradient5)" fill-rule="evenodd" stroke="none"/>
    <path d="M109.15 -52.2 Q114.05 -50.05 117.45 -47.15 121.25 -43.9 121.25 -41.1 121.25 -39.45 119.3 -38.05 117.5 -36.75 116.0 -36.75 105.9 -36.75 100.5 -43.75 97.0 -48.3 97.0 -51.6 97.0 -54.3 100.8 -54.3 104.2 -54.3 109.15 -52.2" fill="url(#gradient6)" fill-rule="evenodd" stroke="none"/>
  </g>
  <defs>
    <linearGradient gradientTransform="matrix(0.0051, 0.0, 0.0, 0.0047, 109.1, -66.15)" gradientUnits="userSpaceOnUse" id="gradient0" spreadMethod="pad" x1="-819.2" x2="819.2">
      <stop offset="0.0" stop-color="#b4f4ff" stop-opacity="0.101960786"/>
      <stop offset="0.9882352941176471" stop-color="#ffffff" stop-opacity="0.69803923"/>
    </linearGradient>
    <linearGradient gradientTransform="matrix(0.1259, 0.0, 0.0, 0.0763, -23.65, -147.5)" gradientUnits="userSpaceOnUse" id="gradient1" spreadMethod="pad" x1="-819.2" x2="819.2">
      <stop offset="0.0" stop-color="#f5b436" stop-opacity="0.5019608"/>
      <stop offset="1.0" stop-color="#d24500" stop-opacity="0.0"/>
    </linearGradient>
    <linearGradient gradientTransform="matrix(0.0436, 0.0, 0.0, 0.0254, 38.25, -48.35)" gradientUnits="userSpaceOnUse" id="gradient2" spreadMethod="pad" x1="-819.2" x2="819.2">
      <stop offset="0.0" stop-color="#f5b436" stop-opacity="0.5019608"/>
      <stop offset="1.0" stop-color="#d24500" stop-opacity="0.0"/>
    </linearGradient>
    <linearGradient gradientTransform="matrix(0.016, 0.0, 0.0, 0.0237, 136.6, 20.3)" gradientUnits="userSpaceOnUse" id="gradient3" spreadMethod="pad" x1="-819.2" x2="819.2">
      <stop offset="0.0" stop-color="#f5b436" stop-opacity="0.3019608"/>
      <stop offset="1.0" stop-color="#d24500" stop-opacity="0.0"/>
    </linearGradient>
    <linearGradient gradientTransform="matrix(0.0165, 0.0, 0.0, 0.0274, 154.0, 71.05)" gradientUnits="userSpaceOnUse" id="gradient4" spreadMethod="pad" x1="-819.2" x2="819.2">
      <stop offset="0.0" stop-color="#f5b436" stop-opacity="0.3019608"/>
      <stop offset="1.0" stop-color="#d24500" stop-opacity="0.0"/>
    </linearGradient>
    <linearGradient gradientTransform="matrix(0.0081, 0.0, 0.0, 0.0167, 121.1, -14.9)" gradientUnits="userSpaceOnUse" id="gradient5" spreadMethod="pad" x1="-819.2" x2="819.2">
      <stop offset="0.0" stop-color="#f5b436" stop-opacity="0.3019608"/>
      <stop offset="1.0" stop-color="#d24500" stop-opacity="0.0"/>
    </linearGradient>
    <linearGradient gradientTransform="matrix(0.0148, 0.0, 0.0, 0.0107, 109.1, -45.55)" gradientUnits="userSpaceOnUse" id="gradient6" spreadMethod="pad" x1="-819.2" x2="819.2">
      <stop offset="0.0" stop-color="#f5b436" stop-opacity="0.3019608"/>
      <stop offset="1.0" stop-color="#d24500" stop-opacity="0.0"/>
    </linearGradient>
  </defs>
</svg>
