<?xml version="1.0" encoding="UTF-8" standalone="no"?>
<svg xmlns:ffdec="https://www.free-decompiler.com/flash" xmlns:xlink="http://www.w3.org/1999/xlink" ffdec:objectType="shape" height="14.1px" width="4.3px" xmlns="http://www.w3.org/2000/svg">
  <g transform="matrix(1.0, 0.0, 0.0, 1.0, 2.1, 7.25)">
    <path d="M0.1 -7.25 L0.25 -2.6 0.2 -2.5 Q0.35 5.3 -0.05 4.65 -0.05 8.05 -0.2 2.75 L-0.45 -4.95 0.1 -7.25" fill="#0a2748" fill-rule="evenodd" stroke="none"/>
    <path d="M-1.3 -0.7 Q-1.3 -0.05 -0.9 0.4 -0.55 0.85 0.05 0.8 0.6 0.8 1.0 0.35 1.4 -0.05 1.4 -0.65 L1.0 -1.75 Q0.55 -2.2 0.0 -2.15 -0.5 -2.15 -0.9 -1.7 -1.3 -1.25 -1.3 -0.7" fill="#081f3a" fill-rule="evenodd" stroke="none"/>
    <path d="M-1.3 -0.7 Q-1.3 -0.05 -0.9 0.4 -0.55 0.85 0.05 0.8 0.6 0.8 1.0 0.35 1.4 -0.05 1.4 -0.65 L1.0 -1.75 Q0.55 -2.2 0.0 -2.15 -0.5 -2.15 -0.9 -1.7 -1.3 -1.25 -1.3 -0.7 Z" ffdec:has-small-stroke="true" ffdec:original-stroke-width="0.7" fill="none" stroke="#081f3a" stroke-linecap="round" stroke-linejoin="round" stroke-width="1.0"/>
    <path d="M-1.75 4.5 Q-1.75 5.3 -1.15 5.9 -0.7 6.55 0.1 6.5 0.8 6.5 1.35 5.9 1.85 5.3 1.85 4.5 1.85 3.7 1.35 3.05 0.8 2.55 0.05 2.55 -0.7 2.55 -1.2 3.1 -1.75 3.7 -1.75 4.5" fill="#081f3a" fill-rule="evenodd" stroke="none"/>
    <path d="M-1.75 4.5 Q-1.75 5.3 -1.15 5.9 -0.7 6.55 0.1 6.5 0.8 6.5 1.35 5.9 1.85 5.3 1.85 4.5 1.85 3.7 1.35 3.05 0.8 2.55 0.05 2.55 -0.7 2.55 -1.2 3.1 -1.75 3.7 -1.75 4.5 Z" ffdec:has-small-stroke="true" ffdec:original-stroke-width="0.7" fill="none" stroke="#081f3a" stroke-linecap="round" stroke-linejoin="round" stroke-width="1.0"/>
    <path d="M-1.3 -0.7 Q-1.3 -0.05 -0.9 0.4 -0.55 0.85 0.05 0.8 0.6 0.8 1.0 0.35 1.4 -0.05 1.4 -0.65 L1.0 -1.75 Q0.55 -2.2 0.0 -2.15 -0.5 -2.15 -0.9 -1.7 -1.3 -1.25 -1.3 -0.7" fill="#29a3fc" fill-rule="evenodd" stroke="none"/>
    <path d="M-1.75 4.5 Q-1.75 5.3 -1.15 5.9 -0.7 6.55 0.1 6.5 0.8 6.5 1.35 5.9 1.85 5.3 1.85 4.5 1.85 3.7 1.35 3.05 0.8 2.55 0.05 2.55 -0.7 2.55 -1.2 3.1 -1.75 3.7 -1.75 4.5" fill="#b81c3e" fill-rule="evenodd" stroke="none"/>
    <path d="M-1.3 -0.65 Q-1.3 -0.05 -0.9 0.35 -0.5 0.85 0.05 0.8 0.55 0.8 1.0 0.35 L1.3 -0.1 0.4 0.25 Q-0.2 0.3 -0.6 -0.15 L-1.05 -1.2 -0.95 -1.65 Q-1.35 -1.2 -1.3 -0.65" fill="#0077cd" fill-rule="evenodd" stroke="none"/>
    <path d="M-1.85 4.4 Q-1.9 5.3 -1.35 5.8 -0.8 6.45 -0.05 6.45 0.65 6.4 1.2 5.8 L1.6 5.25 1.55 5.25 0.25 5.95 Q-0.5 5.9 -1.0 5.3 -1.55 4.75 -1.55 3.95 L-1.45 3.15 Q-1.9 3.7 -1.85 4.4" fill="#7e001b" fill-rule="evenodd" stroke="none"/>
    <path d="M0.25 3.8 L0.45 4.3 0.9 4.45 1.35 4.3 1.6 3.8 1.4 3.35 Q1.1 3.1 0.85 3.05 0.6 3.1 0.45 3.3 L0.25 3.8" fill="#ff708f" fill-rule="evenodd" stroke="none"/>
    <path d="M0.1 -1.1 L0.3 -0.6 Q0.45 -0.4 0.75 -0.45 L1.2 -0.6 1.45 -1.1 1.25 -1.55 0.7 -1.85 0.3 -1.6 0.1 -1.1" fill="#c4e6ff" fill-rule="evenodd" stroke="none"/>
  </g>
</svg>
